<?xml version="1.0" standalone="no"?>
<!DOCTYPE svg PUBLIC "-//W3C//DTD SVG 20010904//EN"
 "http://www.w3.org/TR/2001/REC-SVG-20010904/DTD/svg10.dtd">
<svg version="1.0" xmlns="http://www.w3.org/2000/svg"
 width="1024.000000pt" height="1024.000000pt" viewBox="0 0 1024.000000 1024.000000"
 preserveAspectRatio="xMidYMid meet">
<metadata>
Created by potrace 1.14, written by Peter Selinger 2001-2017
</metadata>
<g transform="translate(0.000000,1024.000000) scale(0.100000,-0.100000)"
fill="#000000" stroke="none">
<path d="M4943 10229 c-110 -16 -333 -82 -341 -101 -2 -5 -10 -8 -17 -8 -27 0
-210 -114 -284 -175 -226 -190 -394 -483 -444 -775 -14 -84 -16 -339 -3 -405
4 -16 11 -55 17 -85 75 -374 371 -735 729 -889 78 -34 89 -38 148 -56 l52 -17
0 -259 0 -259 -1755 -877 c-965 -483 -1755 -880 -1755 -883 0 -3 862 -436
1915 -963 l1915 -957 1915 957 c1053 527 1915 960 1915 963 0 3 -790 400
-1755 883 l-1755 877 0 259 0 259 68 22 c82 27 282 120 282 132 0 4 5 8 10 8
11 0 103 65 154 110 227 194 382 471 430 770 18 111 14 350 -8 450 -112 516
-503 905 -1010 1006 -94 19 -332 26 -423 13z"/>
<path d="M1280 3360 l0 -1440 1920 -960 1920 -960 1920 960 1920 960 0 1440 0
1440 -1920 -960 -1920 -960 -1920 960 -1920 960 0 -1440z"/>
</g>
</svg>
