<svg width="28" height="28" viewBox="0 0 28 28" fill="none" xmlns="http://www.w3.org/2000/svg">
<path d="M0 3C0 2.44772 0.447715 2 1 2H2.89372C4.1577 2 5.28608 2.79223 5.71538 3.98107L11.5 20H10.386C9.55231 20 8.80607 19.4829 8.51334 18.7022L3.24333 4.64888C3.09696 4.25857 2.72384 4 2.307 4H1C0.447715 4 0 3.55228 0 3Z" fill="white"/>
<path d="M4.125 7H25.0879C26.4915 7 27.4585 8.40795 26.9546 9.71796L23.4931 18.718C23.196 19.4903 22.4539 20 21.6264 20H10.386C9.55231 20 8.80607 19.4829 8.51334 18.7022L4.125 7Z" fill="white"/>
<rect x="9" y="22" width="4" height="4" rx="2" fill="white"/>
<rect x="19" y="22" width="4" height="4" rx="2" fill="white"/>
</svg>
