<svg width="24" height="24" viewBox="0 0 24 24" fill="none" xmlns="http://www.w3.org/2000/svg">
<path d="M10.8067 2C10.2897 2 9.79571 2.20431 9.42971 2.57031L9.00002 3H4.00002C3.86751 2.99813 3.73595 3.02261 3.61298 3.07202C3.49001 3.12143 3.37809 3.1948 3.28372 3.28784C3.18935 3.38088 3.11441 3.49176 3.06327 3.61401C3.01212 3.73627 2.98578 3.86747 2.98578 4C2.98578 4.13253 3.01212 4.26373 3.06327 4.38599C3.11441 4.50824 3.18935 4.61912 3.28372 4.71216C3.37809 4.8052 3.49001 4.87857 3.61298 4.92798C3.73595 4.97739 3.86751 5.00187 4.00002 5H20C20.1325 5.00187 20.2641 4.97739 20.3871 4.92798C20.51 4.87857 20.622 4.8052 20.7163 4.71216C20.8107 4.61912 20.8856 4.50824 20.9368 4.38599C20.9879 4.26373 21.0143 4.13253 21.0143 4C21.0143 3.86747 20.9879 3.73627 20.9368 3.61401C20.8856 3.49176 20.8107 3.38088 20.7163 3.28784C20.622 3.1948 20.51 3.12143 20.3871 3.07202C20.2641 3.02261 20.1325 2.99813 20 3H15L14.5703 2.57031C14.2053 2.20431 13.7104 2 13.1934 2H10.8067ZM4.36526 7L5.8926 20.2637C6.0246 21.2537 6.87702 22 7.87502 22H16.1231C17.1211 22 17.9744 21.2549 18.1074 20.2559L19.6348 7H4.36526Z" fill="white"/>
</svg>
