<svg width="130" height="32" viewBox="0 0 130 32" fill="none" xmlns="http://www.w3.org/2000/svg">
<g clip-path="url(#clip0_121_60)">
<path d="M4 15L16 21L28 15L16 9L4 15Z" fill="#00A2D5"/>
<path d="M4 16.9999V26L16 32L28 26V16.9999L16 22.9999L4 16.9999Z" fill="white"/>
<ellipse cx="16" cy="15" rx="4" ry="2" fill="black"/>
<path fill-rule="evenodd" clip-rule="evenodd" d="M17 7.87398C18.7252 7.42994 20 5.86384 20 4C20 1.79086 18.2091 0 16 0C13.7909 0 12 1.79086 12 4C12 5.86384 13.2748 7.42994 15 7.87398V14C15 14.5523 15.4477 15 16 15C16.5523 15 17 14.5523 17 14V7.87398Z" fill="white"/>
<path d="M43.5156 18.3633H48.7891V17.4844H43.5156V18.3633ZM52.3047 21H40V14.8477H48.7891V13.9688H40V11.332H52.3047V21Z" fill="white"/>
<path d="M56.6992 21H53.1836V11.332H65.4883V21H61.9727V13.9688H56.6992V21Z" fill="white"/>
<path d="M69.8828 11.332V21H66.3672V11.332H69.8828Z" fill="white"/>
<path d="M90.0977 21H85.7031L81.3086 16.6055V21H77.793V11.332H81.3086V15.7266L85.7031 11.332H90.0977L85.2637 16.166L90.0977 21Z" fill="white"/>
<path d="M99.7656 13.9688H94.4922V14.8477H99.7656V13.9688ZM90.9766 11.332H103.281V17.4844H94.4922V18.3633H103.281V21H90.9766V11.332Z" fill="white"/>
<path d="M112.949 11.332H116.465V21H104.16V18.3633H112.949V17.4844H104.16V11.332H107.676V14.8477H112.949V11.332Z" fill="white"/>
<path d="M117.344 11.332H129.648V13.9688H120.859V14.8477H129.648V21H117.344V18.3633H126.133V17.4844H117.344V11.332Z" fill="white"/>
</g>
<defs>
<clipPath id="clip0_121_60">
<rect width="130" height="32" fill="white"/>
</clipPath>
</defs>
</svg>
