<svg width="24" height="24" viewBox="0 0 24 24" fill="none" xmlns="http://www.w3.org/2000/svg">
<path fill-rule="evenodd" clip-rule="evenodd" d="M21.4142 5.41424L10.4142 16.4142L7.00006 17L7.58582 13.5858L18.5858 2.58582L21.4142 5.41424Z" fill="black"/>
<path fill-rule="evenodd" clip-rule="evenodd" d="M14 5H4C2.34315 5 1 6.34315 1 8V20C1 21.6569 2.34315 23 4 23H16C17.6569 23 19 21.6569 19 20V10L17 12V20C17 20.5523 16.5523 21 16 21H4C3.44772 21 3 20.5523 3 20V8C3 7.44772 3.44772 7 4 7H12L14 5Z" fill="black"/>
<path fill-rule="evenodd" clip-rule="evenodd" d="M22.5858 1.41427C23.3668 2.19532 23.3668 3.46165 22.5858 4.2427L22 4.82848L19.1716 2.00005L19.7574 1.41427C20.5384 0.63322 21.8047 0.633221 22.5858 1.41427V1.41427Z" fill="black"/>
</svg>
