<svg width="32" height="32" viewBox="0 0 32 32" fill="none" xmlns="http://www.w3.org/2000/svg">
<path d="M10.5421 2.43914C8.83192 2.74491 7.45592 4.01069 7.02214 5.67469C6.8657 6.27558 6.85503 6.62758 6.87281 11.2889C6.88348 15.5698 6.88703 15.6694 6.95814 16C7.35281 17.7814 8.61859 19.0507 10.4177 19.4702C10.6524 19.5236 10.951 19.5342 12.8746 19.5449C14.8657 19.5591 15.0719 19.5556 15.1253 19.5022C15.1786 19.4489 15.1821 18.7627 15.1821 10.9831C15.1821 5.21603 15.1715 2.49958 15.1466 2.4498C15.111 2.3858 15.0506 2.38225 12.967 2.3858C11.2746 2.38936 10.7661 2.40002 10.5421 2.43914ZM13.7599 10.9725V18.176L12.3128 18.1582C10.9795 18.144 10.8373 18.1369 10.5706 18.0694C9.4257 17.7742 8.57592 16.8925 8.3377 15.744C8.25948 15.3849 8.25948 6.53869 8.33414 6.18669C8.54748 5.18758 9.24081 4.35914 10.1759 3.9858C10.6453 3.79736 10.8621 3.77602 12.3839 3.77247L13.7599 3.76891V10.9725Z" fill="white"/>
<path d="M10.8479 5.94134C10.6239 5.98401 10.2826 6.15467 10.1012 6.31467C9.7279 6.63823 9.54301 7.0969 9.57146 7.63734C9.58568 7.91823 9.60346 7.9929 9.71723 8.22045C9.88434 8.56534 10.1368 8.81778 10.4817 8.98845C10.7199 9.10578 10.7803 9.12001 11.0897 9.13067C11.3706 9.14134 11.4701 9.13067 11.6586 9.06667C12.4301 8.80712 12.8959 8.0569 12.7643 7.2889C12.6115 6.37512 11.7439 5.76356 10.8479 5.94134Z" fill="white"/>
<path d="M16.9138 2.4071C16.8996 2.41777 16.8889 6.27199 16.8889 10.9724C16.8889 18.7271 16.8925 19.5129 16.9458 19.5342C17.0418 19.5698 19.8009 19.5555 20.1422 19.52C21.5858 19.3564 22.8587 18.4782 23.552 17.1733C23.6409 17.0062 23.7582 16.7253 23.8187 16.5511C24.0427 15.8827 24.0356 16.0604 24.0356 10.9511C24.0356 6.87288 24.0285 6.26488 23.9787 6.00533C23.6267 4.15288 22.2151 2.75555 20.3591 2.43555C20.1102 2.39288 19.7262 2.38221 18.4889 2.38221C17.6356 2.38221 16.9245 2.39288 16.9138 2.4071ZM20.7111 10.1511C21.2658 10.2969 21.7209 10.72 21.9058 11.2604C22.0231 11.5947 22.0196 12.0853 21.9022 12.3911C21.6854 12.9529 21.2587 13.3475 20.7111 13.4933C19.8222 13.7244 18.8765 13.1875 18.6169 12.3058C18.5387 12.0355 18.5422 11.5804 18.6311 11.3031C18.8978 10.432 19.8222 9.91999 20.7111 10.1511Z" fill="white"/>
<path d="M26.6417 22.1298C26.0905 22.3111 25.7634 22.8409 25.8559 23.4169C25.9128 23.7867 26.1261 24.0782 26.4532 24.2454C26.8977 24.4658 27.3705 24.4089 27.7261 24.0889C27.9928 23.8471 28.1065 23.5947 28.1065 23.2356C28.1065 22.8978 28.007 22.6454 27.783 22.4214C27.5021 22.1405 26.9972 22.0125 26.6417 22.1298ZM27.271 22.6489C27.4843 22.7591 27.6017 22.9369 27.6194 23.1787C27.6408 23.4951 27.5057 23.7227 27.2248 23.84C26.7483 24.0391 26.2079 23.5805 26.343 23.0862C26.3999 22.8658 26.4959 22.7414 26.6737 22.6525C26.8657 22.56 27.0897 22.5565 27.271 22.6489Z" fill="white"/>
<path d="M2.80884 23.2355V24.3235L3.03284 24.3129L3.25328 24.3022L3.27106 23.616L3.28884 22.9298L3.80439 23.6231L4.31995 24.32L4.53328 24.3129L4.74662 24.3022V23.2355V22.1689L4.52617 22.1582L4.30217 22.1475V22.848V23.552L3.7795 22.8515L3.25328 22.1511H3.03284H2.80884V23.2355Z" fill="white"/>
<path d="M6.3645 23.2356V24.32H6.59561H6.82672V23.2356V22.1511H6.59561H6.3645V23.2356Z" fill="white"/>
<path d="M8.44437 22.1973C8.43371 22.2222 8.43015 22.7058 8.43371 23.2711L8.44437 24.3022L8.66837 24.3129L8.88882 24.3235V23.6053V22.8835L9.42215 23.6018L9.95548 24.32H10.1688H10.3822V23.2355V22.1511H10.151H9.91993L9.91282 22.8338L9.90215 23.5164L9.39015 22.8338L8.88171 22.1511H8.67193C8.53326 22.1511 8.45504 22.1653 8.44437 22.1973Z" fill="white"/>
<path d="M11.9004 22.176C11.8862 22.1867 11.8755 22.2933 11.8755 22.4071V22.6133H12.231H12.5866V23.4667V24.32H12.8177H13.0488V23.4667V22.6133H13.3866H13.7244V22.3822V22.1511H12.8248C12.327 22.1511 11.911 22.1618 11.9004 22.176Z" fill="white"/>
<path d="M15.2888 23.2356V24.32H16.1244H16.9599V24.1067V23.8933H16.3377H15.7155V23.6445V23.3956H16.2844H16.8533V23.2V23.0045H16.2844H15.7155V22.7911V22.5778L16.3306 22.5707L16.9422 22.56L16.9528 22.3538L16.9635 22.1511H16.1244H15.2888V23.2356Z" fill="white"/>
<path d="M18.72 22.1973C18.7093 22.2222 18.7058 22.7058 18.7093 23.2711L18.72 24.3022L18.944 24.3129L19.1645 24.3235V23.6018V22.8835L19.6978 23.6018L20.2311 24.32H20.4445H20.6578V23.2355V22.1511H20.4267H20.1956L20.1885 22.8338L20.1778 23.5164L19.6658 22.8338L19.1573 22.1511H18.9476C18.8089 22.1511 18.7307 22.1653 18.72 22.1973Z" fill="white"/>
<path d="M22.4712 23.232V24.32H22.9441C23.4916 24.32 23.7512 24.2667 23.9859 24.1031C24.6792 23.6267 24.5725 22.6062 23.7939 22.2471C23.6481 22.1796 23.5485 22.1689 23.0507 22.1582L22.4712 22.144V23.232ZM23.6339 22.6809C23.9325 22.8196 24.0605 23.2 23.9112 23.5165C23.7974 23.7511 23.5663 23.8578 23.161 23.8578H22.8979V23.2356V22.6133H23.193C23.4027 22.6133 23.5272 22.6347 23.6339 22.6809Z" fill="white"/>
<path d="M21.3972 25.2836C20.903 25.3476 20.4621 25.5787 20.0994 25.9662C19.3066 26.8196 19.3314 28.1173 20.1599 28.9422C20.4657 29.2516 20.743 29.4116 21.1412 29.5111C21.7954 29.6782 22.4568 29.5467 22.9972 29.1378C23.207 28.9813 23.4808 28.6756 23.4594 28.6222C23.4523 28.608 23.3065 28.4765 23.1323 28.3236L22.8194 28.0498L22.7234 28.1742C22.2648 28.7751 21.3368 28.8391 20.7999 28.3022C20.7217 28.224 20.615 28.0782 20.5617 27.9751C20.4728 27.8045 20.4621 27.7511 20.4621 27.4311C20.4621 27.1253 20.4728 27.0507 20.551 26.8978C20.8141 26.3538 21.4648 26.0587 22.0301 26.2222C22.2932 26.2969 22.5421 26.4533 22.6985 26.6418L22.8194 26.7876L22.9759 26.6596C23.0612 26.592 23.2105 26.4605 23.3065 26.3751L23.4843 26.2151L23.3457 26.0445C22.8834 25.4827 22.1368 25.1911 21.3972 25.2836Z" fill="white"/>
<path d="M3.81152 25.4222C2.9653 25.6462 2.52796 26.2115 2.71641 26.8515C2.85152 27.3244 3.29952 27.5555 4.49063 27.7689C5.29063 27.9111 5.5253 28.0284 5.5253 28.2809C5.5253 28.4551 5.42219 28.5831 5.19819 28.6862C5.00619 28.7751 4.96352 28.7822 4.47996 28.7822C3.90752 28.7822 3.68352 28.736 3.26041 28.544C3.12885 28.4835 3.01508 28.4409 3.00796 28.448C2.9653 28.5013 2.62752 29.1307 2.63819 29.1378C2.67374 29.1769 3.24263 29.3831 3.4773 29.4471C3.86841 29.5502 4.70396 29.5751 5.13063 29.4969C5.92708 29.3475 6.32174 28.9813 6.3573 28.3662C6.38574 27.8578 6.24352 27.5947 5.80619 27.3671C5.4933 27.2035 5.22308 27.1253 4.5333 26.9867C3.93241 26.8693 3.76174 26.8124 3.6373 26.6951C3.52708 26.592 3.52708 26.4071 3.64085 26.2933C3.89685 26.0373 4.81419 26.0267 5.5253 26.2755C5.64263 26.3147 5.7493 26.336 5.76352 26.3218C5.78841 26.2933 6.04441 25.6924 6.04441 25.6569C6.04441 25.6249 5.50041 25.4649 5.19463 25.408C4.78219 25.3298 4.14219 25.3369 3.81152 25.4222Z" fill="white"/>
<path d="M6.84095 25.4471C6.85161 25.4827 7.1005 26.368 7.39561 27.4133C7.69072 28.4587 7.93961 29.344 7.95028 29.376C7.96806 29.4329 8.02495 29.44 8.46228 29.44H8.9565L8.99561 29.3049C9.34761 28.032 9.70317 26.8373 9.72095 26.88C9.73161 26.9084 9.89872 27.4915 10.0907 28.1778L10.4392 29.4222L10.9369 29.4329L11.4347 29.4435L12.0001 27.4595C12.3094 26.368 12.5689 25.4542 12.5796 25.4293C12.5903 25.3973 12.4907 25.3867 12.1458 25.3867H11.7014L11.6516 25.5538C11.6232 25.6498 11.4525 26.2898 11.2712 26.976C11.0863 27.6658 10.9298 28.2311 10.9156 28.2311C10.9049 28.2311 10.7378 27.6907 10.5458 27.0293C10.3538 26.3715 10.1654 25.7315 10.1263 25.6071L10.0587 25.3831L9.69606 25.3938L9.33339 25.4044L8.91739 26.8267C8.68984 27.6089 8.50139 28.256 8.49784 28.2667C8.49428 28.2773 8.33428 27.7013 8.14584 26.9867C7.95384 26.272 7.77606 25.6213 7.75472 25.536L7.71206 25.3867H7.26761C6.85872 25.3867 6.82317 25.3902 6.84095 25.4471Z" fill="white"/>
<path d="M13.5823 27.4133V29.44H14.0445H14.5067L14.4996 27.4204L14.4889 25.4044L14.0374 25.3938L13.5823 25.3831V27.4133Z" fill="white"/>
<path d="M15.4666 25.8311V26.2756H16.1066H16.7466V27.8578V29.44H17.191H17.6354V27.8578V26.2756L18.2683 26.2684L18.8977 26.2578V25.8311V25.4044L17.1839 25.3938L15.4666 25.3867V25.8311Z" fill="white"/>
<path d="M24.3911 27.4133V29.44H24.8178H25.2444V28.64V27.84H26.1867H27.1289V28.64V29.44H27.5556H27.9822L27.9751 27.4204L27.9644 25.4044L27.5484 25.3938L27.1289 25.3831V26.1867V26.9867H26.1867H25.2444V26.1867V25.3867H24.8178H24.3911V27.4133Z" fill="white"/>
</svg>
