<svg width="800" height="800" viewBox="0 0 800 800" fill="none" xmlns="http://www.w3.org/2000/svg">
<g clip-path="url(#clip0_151_231)">
<path d="M675 75C744.036 75 800 130.964 800 200V500C800 569.036 744.036 625 675 625H500V700H575C588.807 700 600 711.193 600 725C600 738.807 588.807 750 575 750H225C211.193 750 200 738.807 200 725C200 711.193 211.193 700 225 700H300V625H125C57.7811 625 2.95455 571.942 0.115488 505.422L0 500V200C0 130.964 55.9644 75 125 75H675ZM450 700V625H350V700H450ZM675 125H125C83.5786 125 50 158.579 50 200V500C50 541.421 83.5786 575 125 575H675C716.421 575 750 541.421 750 500V200C750 158.579 716.421 125 675 125Z" fill="white"/>
</g>
<defs>
<clipPath id="clip0_151_231">
<rect width="800" height="800" fill="white"/>
</clipPath>
</defs>
</svg>
