<svg width="128" height="128" viewBox="0 0 128 128" fill="none" xmlns="http://www.w3.org/2000/svg">
<path fill-rule="evenodd" clip-rule="evenodd" d="M68.9115 36.4451L68.8301 111.17L48.8092 104.658V16.8267L74.3647 23.5832C90.723 27.9797 100.734 36.5258 100.571 51.5036C100.408 68.9238 92.3509 75.9235 76.6433 71.3651V37.0138C76.6433 32.8622 68.9115 32.6191 68.9115 36.4451Z" fill="white"/>
<path fill-rule="evenodd" clip-rule="evenodd" d="M39.6119 90.1674L30.1708 93.3427C24.066 95.4596 18.8579 90.4945 24.4735 88.4582L29.0309 86.8313L11.858 81.3764C6.56753 83.168 1.6026 86.9938 1.92894 92.3665C2.25452 97.8197 14.7063 99.1228 24.3109 100.669C33.263 102.134 41.4018 101.32 48.8089 98.7152V93.0981L39.6119 90.1674ZM68.9927 111.17L86.4912 105.064L68.8301 99.4483V110.762L68.9927 111.17Z" fill="white"/>
<path fill-rule="evenodd" clip-rule="evenodd" d="M115.547 94.8087L115.872 94.7268C123.522 92.0414 126.778 88.2956 125.965 84.7966C124.662 78.9362 115.303 75.7608 100.897 74.7023C90.5608 73.9702 80.3876 76.2488 70.4582 79.6673L68.8303 80.2377L86.6543 85.7729L97.0717 82.2722C107.978 80.2377 112.374 83.8189 101.874 87.1567L96.6649 88.9465L115.547 94.8087ZM48.8092 68.9238L40.9138 71.6092L48.8092 74.0514V68.9238Z" fill="white"/>
<path fill-rule="evenodd" clip-rule="evenodd" d="M86.4911 105.064L115.547 94.8087L96.6644 88.9465L68.83 98.4703V99.4483L86.4911 105.064ZM48.8092 87.0744L39.6122 90.1676L48.8092 93.0981V87.0744ZM68.83 91.8785V80.2377L86.6541 85.7729L68.83 91.8785ZM29.0311 86.8313L48.8089 79.7495V74.0514L40.9137 71.6092L12.2651 81.2959C12.1836 81.2959 12.0209 81.3764 11.8583 81.3764L29.0311 86.8313Z" fill="white"/>
</svg>
