<svg width="16" height="16" viewBox="0 0 16 16" fill="none" xmlns="http://www.w3.org/2000/svg">
<g clip-path="url(#clip0_149_60)">
<path fill-rule="evenodd" clip-rule="evenodd" d="M2.3432 2.34314L4.11168 2.93264L3.99999 1.07178L5.55576 2.09898L5.9295 0.272586L7.16632 1.66736L8 0L8.83372 1.66744L10.0706 0.272581L10.4444 2.09897L12.0001 1.07178L11.8884 2.9326L13.6568 2.34314L13.0673 4.11168L14.9281 3.99999L13.9009 5.5557L15.7273 5.92944L14.3325 7.16626L16 8L14.3326 8.8337L15.7274 10.0706L13.9011 10.4443L14.9282 12L13.0673 11.8883L13.6568 13.6569L11.8883 13.0674L12 14.9282L10.4442 13.901L10.0705 15.7274L8.83368 14.3326L8 16L7.16628 14.3326L5.92939 15.7274L5.55564 13.901L3.99989 14.9282L4.11158 13.0674L2.3432 13.6569L2.93272 11.8883L1.0719 12L2.09906 10.4443L0.272708 10.0706L1.66748 8.83374L0 8L1.6674 7.1663L0.272581 5.92945L2.09894 5.55571L1.07178 4.00001L2.93272 4.11171L2.3432 2.34314ZM9.55198 9.84C9.54664 9.728 9.54398 9.62933 9.54398 9.544C9.54398 9.45333 9.54664 9.352 9.55198 9.24C9.56264 9.128 9.58664 9.024 9.62398 8.928C9.66131 8.832 9.71464 8.752 9.78398 8.688C9.85864 8.624 9.95998 8.592 10.088 8.592C10.2053 8.592 10.296 8.62933 10.36 8.704C10.4293 8.77333 10.48 8.85867 10.512 8.96C10.544 9.056 10.5626 9.16 10.568 9.272C10.5786 9.37867 10.584 9.472 10.584 9.552C10.584 9.63733 10.5786 9.736 10.568 9.848C10.5626 9.95467 10.5413 10.0587 10.504 10.16C10.472 10.256 10.4186 10.3387 10.344 10.408C10.2746 10.4773 10.1786 10.512 10.056 10.512C9.92798 10.512 9.82931 10.4773 9.75998 10.408C9.69064 10.3387 9.63998 10.256 9.60798 10.16C9.57598 10.0587 9.55731 9.952 9.55198 9.84ZM8.80798 8.928C8.75464 9.11467 8.72798 9.31733 8.72798 9.536C8.72798 9.75467 8.74931 9.96 8.79198 10.152C8.83998 10.344 8.91464 10.512 9.01598 10.656C9.12264 10.7947 9.25864 10.904 9.42397 10.984C9.59464 11.064 9.80264 11.104 10.048 11.104C10.2826 11.104 10.4853 11.0667 10.656 10.992C10.8266 10.912 10.9653 10.8027 11.072 10.664C11.184 10.5253 11.2666 10.3627 11.32 10.176C11.3733 9.98933 11.4 9.78667 11.4 9.568C11.4 9.34933 11.3786 9.144 11.336 8.952C11.2933 8.76 11.2186 8.59467 11.112 8.456C11.0106 8.312 10.8773 8.2 10.712 8.12C10.5466 8.03467 10.3386 7.992 10.088 7.992C9.85331 7.992 9.65064 8.032 9.47998 8.112C9.30931 8.192 9.16798 8.30133 9.05597 8.44C8.94398 8.57867 8.86131 8.74133 8.80798 8.928ZM10.024 5.224H9.34398L6.03198 11.168H6.72798L10.024 5.224ZM5.42398 7.176C5.41864 7.06933 5.41598 6.97333 5.41598 6.888C5.41598 6.79733 5.41864 6.69333 5.42398 6.576C5.43464 6.45867 5.45864 6.34933 5.49598 6.248C5.53331 6.14667 5.58664 6.06133 5.65598 5.992C5.73064 5.92267 5.83198 5.888 5.95998 5.888C6.07731 5.888 6.16798 5.92533 6.23198 6C6.30131 6.07467 6.35198 6.16533 6.38398 6.272C6.41598 6.37867 6.43464 6.49067 6.43998 6.608C6.45064 6.72 6.45598 6.816 6.45598 6.896C6.45598 6.98133 6.45064 7.07733 6.43998 7.184C6.43464 7.28533 6.41331 7.384 6.37598 7.48C6.34398 7.57067 6.29064 7.648 6.21598 7.712C6.14664 7.776 6.05064 7.808 5.92798 7.808C5.79998 7.808 5.70131 7.776 5.63198 7.712C5.56264 7.648 5.51198 7.57067 5.47998 7.48C5.44798 7.384 5.42931 7.28267 5.42398 7.176ZM4.67998 6.256C4.62664 6.448 4.59998 6.65333 4.59998 6.872C4.59998 7.09067 4.62131 7.296 4.66398 7.488C4.71198 7.67467 4.78664 7.83733 4.88798 7.976C4.99464 8.10933 5.13064 8.216 5.29598 8.296C5.46664 8.37067 5.67464 8.408 5.91998 8.408C6.15464 8.408 6.35731 8.37067 6.52798 8.296C6.69864 8.22133 6.83731 8.11733 6.94398 7.984C7.05598 7.85067 7.13864 7.69333 7.19198 7.512C7.24531 7.32533 7.27198 7.12267 7.27198 6.904C7.27198 6.68533 7.25064 6.47733 7.20798 6.28C7.16531 6.08267 7.09064 5.912 6.98398 5.768C6.88264 5.61867 6.74931 5.50133 6.58398 5.416C6.41864 5.33067 6.21064 5.288 5.95998 5.288C5.72531 5.288 5.52264 5.33067 5.35198 5.416C5.18131 5.496 5.03998 5.608 4.92798 5.752C4.81598 5.896 4.73331 6.064 4.67998 6.256Z" fill="white"/>
</g>
<defs>
<clipPath id="clip0_149_60">
<rect width="16" height="16" fill="white"/>
</clipPath>
</defs>
</svg>
