<svg width="22" height="22" viewBox="0 0 22 22" fill="none" xmlns="http://www.w3.org/2000/svg">
<g clip-path="url(#clip0_2799_2)">
<path fill-rule="evenodd" clip-rule="evenodd" d="M4 0C1.79086 0 0 1.79086 0 4V18C0 20.2091 1.79086 22 4 22H18C20.2091 22 22 20.2091 22 18V4C22 1.79086 20.2091 0 18 0H4ZM9.5 13.5C11.7091 13.5 13.5 11.7091 13.5 9.5C13.5 7.29086 11.7091 5.5 9.5 5.5C7.29086 5.5 5.5 7.29086 5.5 9.5C5.5 11.7091 7.29086 13.5 9.5 13.5ZM9.5 15C10.7484 15 11.8996 14.5841 12.8226 13.8833L15.4697 16.5303C15.7626 16.8232 16.2374 16.8232 16.5303 16.5303C16.8232 16.2374 16.8232 15.7626 16.5303 15.4697L13.8833 12.8226C14.5841 11.8996 15 10.7484 15 9.5C15 6.46243 12.5376 4 9.5 4C6.46243 4 4 6.46243 4 9.5C4 12.5376 6.46243 15 9.5 15Z" fill="#0076D7"/>
</g>
<defs>
<clipPath id="clip0_2799_2">
<rect width="22" height="22" fill="white"/>
</clipPath>
</defs>
</svg>
